<?xml version="1.0" encoding="UTF-8" standalone="no"?>
<!DOCTYPE svg PUBLIC "-//W3C//DTD SVG 1.1//EN"
 "http://www.w3.org/Graphics/SVG/1.1/DTD/svg11.dtd">
<!-- Generated by graphviz version 2.47.0 (20210316.0004)
 -->
<!-- Title: dependencies Pages: 1 -->
<svg width="504pt" height="211pt"
 viewBox="0.00 0.00 504.00 211.00" xmlns="http://www.w3.org/2000/svg" xmlns:xlink="http://www.w3.org/1999/xlink">
<g id="graph0" class="graph" transform="scale(1 1) rotate(0) translate(4 207)">
<title>dependencies</title>
<polygon fill="white" stroke="transparent" points="-4,4 -4,-207 500,-207 500,4 -4,4"/>
<text text-anchor="start" x="227.01" y="-42.4" font-family="sans-serif" font-weight="bold" font-size="14.00">Legend</text>
<polygon fill="#ffffb3" stroke="transparent" points="14,-10 14,-30 34,-30 34,-10 14,-10"/>
<text text-anchor="start" x="37.63" y="-15.4" font-family="sans-serif" font-size="14.00"> &#160;Declarations</text>
<polygon fill="#8dd3c7" stroke="transparent" points="127,-10 127,-30 147,-30 147,-10 127,-10"/>
<text text-anchor="start" x="150.73" y="-15.4" font-family="sans-serif" font-size="14.00"> &#160;Module</text>
<polygon fill="#80b1d3" stroke="transparent" points="213,-10 213,-30 233,-30 233,-10 213,-10"/>
<text text-anchor="start" x="236.78" y="-15.4" font-family="sans-serif" font-size="14.00"> &#160;Bootstrap</text>
<polygon fill="#fdb462" stroke="transparent" points="310,-10 310,-30 330,-30 330,-10 310,-10"/>
<text text-anchor="start" x="333.67" y="-15.4" font-family="sans-serif" font-size="14.00"> &#160;Providers</text>
<polygon fill="#fb8072" stroke="transparent" points="406,-10 406,-30 426,-30 426,-10 406,-10"/>
<text text-anchor="start" x="429.73" y="-15.4" font-family="sans-serif" font-size="14.00"> &#160;Exports</text>
<g id="clust1" class="cluster">
<title>cluster_PickerModalPageModule</title>
<polygon fill="none" stroke="black" stroke-dasharray="1,5" points="60,-70 60,-195 436,-195 436,-70 60,-70"/>
</g>
<g id="clust4" class="cluster">
<title>cluster_PickerModalPageModule_imports</title>
<polygon fill="none" stroke="black" points="208,-78 208,-130 428,-130 428,-78 208,-78"/>
</g>
<g id="clust2" class="cluster">
<title>cluster_PickerModalPageModule_declarations</title>
<polygon fill="none" stroke="black" points="68,-78 68,-130 200,-130 200,-78 68,-78"/>
</g>
<!-- PickerModalPage -->
<g id="node1" class="node">
<title>PickerModalPage</title>
<polygon fill="#ffffb3" stroke="black" points="191.53,-122 76.47,-122 76.47,-86 191.53,-86 191.53,-122"/>
<text text-anchor="middle" x="134" y="-99.8" font-family="Times,serif" font-size="14.00">PickerModalPage</text>
</g>
<!-- PickerModalPageModule -->
<g id="node2" class="node">
<title>PickerModalPageModule</title>
<polygon fill="#8dd3c7" stroke="black" points="312.57,-187 309.57,-191 288.57,-191 285.57,-187 153.43,-187 153.43,-151 312.57,-151 312.57,-187"/>
<text text-anchor="middle" x="233" y="-164.8" font-family="Times,serif" font-size="14.00">PickerModalPageModule</text>
</g>
<!-- PickerModalPage&#45;&gt;PickerModalPageModule -->
<g id="edge1" class="edge">
<title>PickerModalPage&#45;&gt;PickerModalPageModule</title>
<path fill="none" stroke="black" d="M172.61,-122.11C172.61,-122.11 172.61,-140.99 172.61,-140.99"/>
<polygon fill="black" stroke="black" points="169.11,-140.99 172.61,-150.99 176.11,-140.99 169.11,-140.99"/>
</g>
<!-- PickerModalPageRoutingModule -->
<g id="node3" class="node">
<title>PickerModalPageRoutingModule</title>
<polygon fill="#8dd3c7" stroke="black" points="420.19,-122 417.19,-126 396.19,-126 393.19,-122 215.81,-122 215.81,-86 420.19,-86 420.19,-122"/>
<text text-anchor="middle" x="318" y="-99.8" font-family="Times,serif" font-size="14.00">PickerModalPageRoutingModule</text>
</g>
<!-- PickerModalPageRoutingModule&#45;&gt;PickerModalPageModule -->
<g id="edge2" class="edge">
<title>PickerModalPageRoutingModule&#45;&gt;PickerModalPageModule</title>
<path fill="none" stroke="black" d="M264.22,-122.11C264.22,-122.11 264.22,-140.99 264.22,-140.99"/>
<polygon fill="black" stroke="black" points="260.72,-140.99 264.22,-150.99 267.72,-140.99 260.72,-140.99"/>
</g>
</g>
</svg>
