<?xml version="1.0" encoding="UTF-8" standalone="no"?>
<!DOCTYPE svg PUBLIC "-//W3C//DTD SVG 1.1//EN"
 "http://www.w3.org/Graphics/SVG/1.1/DTD/svg11.dtd">
<!-- Generated by graphviz version 2.47.0 (20210316.0004)
 -->
<!-- Title: dependencies Pages: 1 -->
<svg width="504pt" height="284pt"
 viewBox="0.00 0.00 504.00 284.00" xmlns="http://www.w3.org/2000/svg" xmlns:xlink="http://www.w3.org/1999/xlink">
<g id="graph0" class="graph" transform="scale(1 1) rotate(0) translate(4 280)">
<title>dependencies</title>
<polygon fill="white" stroke="transparent" points="-4,4 -4,-280 500,-280 500,4 -4,4"/>
<text text-anchor="start" x="227.01" y="-42.4" font-family="sans-serif" font-weight="bold" font-size="14.00">Legend</text>
<polygon fill="#ffffb3" stroke="transparent" points="14,-10 14,-30 34,-30 34,-10 14,-10"/>
<text text-anchor="start" x="37.63" y="-15.4" font-family="sans-serif" font-size="14.00"> &#160;Declarations</text>
<polygon fill="#8dd3c7" stroke="transparent" points="127,-10 127,-30 147,-30 147,-10 127,-10"/>
<text text-anchor="start" x="150.73" y="-15.4" font-family="sans-serif" font-size="14.00"> &#160;Module</text>
<polygon fill="#80b1d3" stroke="transparent" points="213,-10 213,-30 233,-30 233,-10 213,-10"/>
<text text-anchor="start" x="236.78" y="-15.4" font-family="sans-serif" font-size="14.00"> &#160;Bootstrap</text>
<polygon fill="#fdb462" stroke="transparent" points="310,-10 310,-30 330,-30 330,-10 310,-10"/>
<text text-anchor="start" x="333.67" y="-15.4" font-family="sans-serif" font-size="14.00"> &#160;Providers</text>
<polygon fill="#fb8072" stroke="transparent" points="406,-10 406,-30 426,-30 426,-10 406,-10"/>
<text text-anchor="start" x="429.73" y="-15.4" font-family="sans-serif" font-size="14.00"> &#160;Exports</text>
<g id="clust1" class="cluster">
<title>cluster_AppModule</title>
<polygon fill="none" stroke="black" stroke-dasharray="1,5" points="26,-70 26,-268 470,-268 470,-70 26,-70"/>
</g>
<g id="clust7" class="cluster">
<title>cluster_AppModule_providers</title>
<polygon fill="none" stroke="black" points="316,-78 316,-130 462,-130 462,-78 316,-78"/>
</g>
<g id="clust2" class="cluster">
<title>cluster_AppModule_declarations</title>
<polygon fill="none" stroke="black" points="186,-78 186,-130 308,-130 308,-78 186,-78"/>
</g>
<g id="clust6" class="cluster">
<title>cluster_AppModule_bootstrap</title>
<polygon fill="none" stroke="black" points="185,-208 185,-260 309,-260 309,-208 185,-208"/>
</g>
<g id="clust4" class="cluster">
<title>cluster_AppModule_imports</title>
<polygon fill="none" stroke="black" points="34,-78 34,-130 178,-130 178,-78 34,-78"/>
</g>
<!-- AppComponent -->
<g id="node1" class="node">
<title>AppComponent</title>
<polygon fill="#ffffb3" stroke="black" points="299.94,-122 194.06,-122 194.06,-86 299.94,-86 299.94,-122"/>
<text text-anchor="middle" x="247" y="-99.8" font-family="Times,serif" font-size="14.00">AppComponent</text>
</g>
<!-- AppModule -->
<g id="node2" class="node">
<title>AppModule</title>
<polygon fill="#8dd3c7" stroke="black" points="288.66,-187 285.66,-191 264.66,-191 261.66,-187 205.34,-187 205.34,-151 288.66,-151 288.66,-187"/>
<text text-anchor="middle" x="247" y="-164.8" font-family="Times,serif" font-size="14.00">AppModule</text>
</g>
<!-- AppComponent&#45;&gt;AppModule -->
<g id="edge1" class="edge">
<title>AppComponent&#45;&gt;AppModule</title>
<path fill="none" stroke="black" d="M247,-122.11C247,-122.11 247,-140.99 247,-140.99"/>
<polygon fill="black" stroke="black" points="243.5,-140.99 247,-150.99 250.5,-140.99 243.5,-140.99"/>
</g>
<!-- AppComponent  -->
<g id="node4" class="node">
<title>AppComponent </title>
<polygon fill="#80b1d3" stroke="black" points="301.44,-252 192.56,-252 192.56,-216 301.44,-216 301.44,-252"/>
<text text-anchor="middle" x="247" y="-229.8" font-family="Times,serif" font-size="14.00">AppComponent </text>
</g>
<!-- AppModule&#45;&gt;AppComponent  -->
<g id="edge3" class="edge">
<title>AppModule&#45;&gt;AppComponent </title>
<path fill="none" stroke="black" stroke-dasharray="1,5" d="M247,-187.11C247,-187.11 247,-205.99 247,-205.99"/>
<polygon fill="black" stroke="black" points="243.5,-205.99 247,-215.99 250.5,-205.99 243.5,-205.99"/>
</g>
<!-- AppRoutingModule -->
<g id="node3" class="node">
<title>AppRoutingModule</title>
<polygon fill="#8dd3c7" stroke="black" points="170.27,-122 167.27,-126 146.27,-126 143.27,-122 41.73,-122 41.73,-86 170.27,-86 170.27,-122"/>
<text text-anchor="middle" x="106" y="-99.8" font-family="Times,serif" font-size="14.00">AppRoutingModule</text>
</g>
<!-- AppRoutingModule&#45;&gt;AppModule -->
<g id="edge2" class="edge">
<title>AppRoutingModule&#45;&gt;AppModule</title>
<path fill="none" stroke="black" d="M106,-122.11C106,-141.34 106,-169 106,-169 106,-169 195.08,-169 195.08,-169"/>
<polygon fill="black" stroke="black" points="195.08,-172.5 205.08,-169 195.08,-165.5 195.08,-172.5"/>
</g>
<!-- UtilityService -->
<g id="node5" class="node">
<title>UtilityService</title>
<ellipse fill="#fdb462" stroke="black" cx="389" cy="-104" rx="65.42" ry="18"/>
<text text-anchor="middle" x="389" y="-99.8" font-family="Times,serif" font-size="14.00">UtilityService</text>
</g>
<!-- UtilityService&#45;&gt;AppModule -->
<g id="edge4" class="edge">
<title>UtilityService&#45;&gt;AppModule</title>
<path fill="none" stroke="black" d="M389,-122.11C389,-141.34 389,-169 389,-169 389,-169 298.84,-169 298.84,-169"/>
<polygon fill="black" stroke="black" points="298.84,-165.5 288.84,-169 298.84,-172.5 298.84,-165.5"/>
</g>
</g>
</svg>
