<?xml version="1.0" encoding="UTF-8" standalone="no"?>
<!DOCTYPE svg PUBLIC "-//W3C//DTD SVG 1.1//EN"
 "http://www.w3.org/Graphics/SVG/1.1/DTD/svg11.dtd">
<!-- Generated by graphviz version 2.47.0 (20210316.0004)
 -->
<!-- Title: dependencies Pages: 1 -->
<svg width="504pt" height="211pt"
 viewBox="0.00 0.00 504.00 211.00" xmlns="http://www.w3.org/2000/svg" xmlns:xlink="http://www.w3.org/1999/xlink">
<g id="graph0" class="graph" transform="scale(1 1) rotate(0) translate(4 207)">
<title>dependencies</title>
<polygon fill="white" stroke="transparent" points="-4,4 -4,-207 500,-207 500,4 -4,4"/>
<text text-anchor="start" x="227.01" y="-42.4" font-family="sans-serif" font-weight="bold" font-size="14.00">Legend</text>
<polygon fill="#ffffb3" stroke="transparent" points="14,-10 14,-30 34,-30 34,-10 14,-10"/>
<text text-anchor="start" x="37.63" y="-15.4" font-family="sans-serif" font-size="14.00"> &#160;Declarations</text>
<polygon fill="#8dd3c7" stroke="transparent" points="127,-10 127,-30 147,-30 147,-10 127,-10"/>
<text text-anchor="start" x="150.73" y="-15.4" font-family="sans-serif" font-size="14.00"> &#160;Module</text>
<polygon fill="#80b1d3" stroke="transparent" points="213,-10 213,-30 233,-30 233,-10 213,-10"/>
<text text-anchor="start" x="236.78" y="-15.4" font-family="sans-serif" font-size="14.00"> &#160;Bootstrap</text>
<polygon fill="#fdb462" stroke="transparent" points="310,-10 310,-30 330,-30 330,-10 310,-10"/>
<text text-anchor="start" x="333.67" y="-15.4" font-family="sans-serif" font-size="14.00"> &#160;Providers</text>
<polygon fill="#fb8072" stroke="transparent" points="406,-10 406,-30 426,-30 426,-10 406,-10"/>
<text text-anchor="start" x="429.73" y="-15.4" font-family="sans-serif" font-size="14.00"> &#160;Exports</text>
<g id="clust1" class="cluster">
<title>cluster_OrderPageModule</title>
<polygon fill="none" stroke="black" stroke-dasharray="1,5" points="64,-70 64,-195 432,-195 432,-70 64,-70"/>
</g>
<g id="clust4" class="cluster">
<title>cluster_OrderPageModule_imports</title>
<polygon fill="none" stroke="black" points="172,-78 172,-130 424,-130 424,-78 172,-78"/>
</g>
<g id="clust2" class="cluster">
<title>cluster_OrderPageModule_declarations</title>
<polygon fill="none" stroke="black" points="72,-78 72,-130 164,-130 164,-78 72,-78"/>
</g>
<!-- OrderPage -->
<g id="node1" class="node">
<title>OrderPage</title>
<polygon fill="#ffffb3" stroke="black" points="155.85,-122 80.15,-122 80.15,-86 155.85,-86 155.85,-122"/>
<text text-anchor="middle" x="118" y="-99.8" font-family="Times,serif" font-size="14.00">OrderPage</text>
</g>
<!-- OrderPageModule -->
<g id="node2" class="node">
<title>OrderPageModule</title>
<polygon fill="#8dd3c7" stroke="black" points="266.9,-187 263.9,-191 242.9,-191 239.9,-187 147.1,-187 147.1,-151 266.9,-151 266.9,-187"/>
<text text-anchor="middle" x="207" y="-164.8" font-family="Times,serif" font-size="14.00">OrderPageModule</text>
</g>
<!-- OrderPage&#45;&gt;OrderPageModule -->
<g id="edge1" class="edge">
<title>OrderPage&#45;&gt;OrderPageModule</title>
<path fill="none" stroke="black" d="M151.61,-122.11C151.61,-122.11 151.61,-140.99 151.61,-140.99"/>
<polygon fill="black" stroke="black" points="148.11,-140.99 151.61,-150.99 155.11,-140.99 148.11,-140.99"/>
</g>
<!-- OrderPageRoutingModule -->
<g id="node3" class="node">
<title>OrderPageRoutingModule</title>
<polygon fill="#8dd3c7" stroke="black" points="416.02,-122 413.02,-126 392.02,-126 389.02,-122 251.98,-122 251.98,-86 416.02,-86 416.02,-122"/>
<text text-anchor="middle" x="334" y="-99.8" font-family="Times,serif" font-size="14.00">OrderPageRoutingModule</text>
</g>
<!-- OrderPageRoutingModule&#45;&gt;OrderPageModule -->
<g id="edge2" class="edge">
<title>OrderPageRoutingModule&#45;&gt;OrderPageModule</title>
<path fill="none" stroke="black" d="M259.22,-122.11C259.22,-122.11 259.22,-140.99 259.22,-140.99"/>
<polygon fill="black" stroke="black" points="255.72,-140.99 259.22,-150.99 262.72,-140.99 255.72,-140.99"/>
</g>
<!-- Router -->
<g id="node4" class="node">
<title>Router</title>
<polygon fill="#8dd3c7" stroke="black" points="234.1,-122 231.1,-126 210.1,-126 207.1,-122 179.9,-122 179.9,-86 234.1,-86 234.1,-122"/>
<text text-anchor="middle" x="207" y="-99.8" font-family="Times,serif" font-size="14.00">Router</text>
</g>
<!-- Router&#45;&gt;OrderPageModule -->
<g id="edge3" class="edge">
<title>Router&#45;&gt;OrderPageModule</title>
<path fill="none" stroke="black" d="M207,-122.11C207,-122.11 207,-140.99 207,-140.99"/>
<polygon fill="black" stroke="black" points="203.5,-140.99 207,-150.99 210.5,-140.99 203.5,-140.99"/>
</g>
</g>
</svg>
