<?xml version="1.0" encoding="UTF-8" standalone="no"?>
<!DOCTYPE svg PUBLIC "-//W3C//DTD SVG 1.1//EN"
 "http://www.w3.org/Graphics/SVG/1.1/DTD/svg11.dtd">
<!-- Generated by graphviz version 2.47.0 (20210316.0004)
 -->
<!-- Title: dependencies Pages: 1 -->
<svg width="504pt" height="211pt"
 viewBox="0.00 0.00 504.00 211.00" xmlns="http://www.w3.org/2000/svg" xmlns:xlink="http://www.w3.org/1999/xlink">
<g id="graph0" class="graph" transform="scale(1 1) rotate(0) translate(4 207)">
<title>dependencies</title>
<polygon fill="white" stroke="transparent" points="-4,4 -4,-207 500,-207 500,4 -4,4"/>
<text text-anchor="start" x="227.01" y="-42.4" font-family="sans-serif" font-weight="bold" font-size="14.00">Legend</text>
<polygon fill="#ffffb3" stroke="transparent" points="14,-10 14,-30 34,-30 34,-10 14,-10"/>
<text text-anchor="start" x="37.63" y="-15.4" font-family="sans-serif" font-size="14.00"> &#160;Declarations</text>
<polygon fill="#8dd3c7" stroke="transparent" points="127,-10 127,-30 147,-30 147,-10 127,-10"/>
<text text-anchor="start" x="150.73" y="-15.4" font-family="sans-serif" font-size="14.00"> &#160;Module</text>
<polygon fill="#80b1d3" stroke="transparent" points="213,-10 213,-30 233,-30 233,-10 213,-10"/>
<text text-anchor="start" x="236.78" y="-15.4" font-family="sans-serif" font-size="14.00"> &#160;Bootstrap</text>
<polygon fill="#fdb462" stroke="transparent" points="310,-10 310,-30 330,-30 330,-10 310,-10"/>
<text text-anchor="start" x="333.67" y="-15.4" font-family="sans-serif" font-size="14.00"> &#160;Providers</text>
<polygon fill="#fb8072" stroke="transparent" points="406,-10 406,-30 426,-30 426,-10 406,-10"/>
<text text-anchor="start" x="429.73" y="-15.4" font-family="sans-serif" font-size="14.00"> &#160;Exports</text>
<g id="clust1" class="cluster">
<title>cluster_OrderPageModule</title>
<polygon fill="none" stroke="black" stroke-dasharray="1,5" points="64,-70 64,-195 432,-195 432,-70 64,-70"/>
</g>
<g id="clust2" class="cluster">
<title>cluster_OrderPageModule_declarations</title>
<polygon fill="none" stroke="black" points="332,-78 332,-130 424,-130 424,-78 332,-78"/>
</g>
<g id="clust4" class="cluster">
<title>cluster_OrderPageModule_imports</title>
<polygon fill="none" stroke="black" points="72,-78 72,-130 324,-130 324,-78 72,-78"/>
</g>
<!-- OrderPage -->
<g id="node1" class="node">
<title>OrderPage</title>
<polygon fill="#ffffb3" stroke="black" points="415.85,-122 340.15,-122 340.15,-86 415.85,-86 415.85,-122"/>
<text text-anchor="middle" x="378" y="-99.8" font-family="Times,serif" font-size="14.00">OrderPage</text>
</g>
<!-- OrderPageModule -->
<g id="node2" class="node">
<title>OrderPageModule</title>
<polygon fill="#8dd3c7" stroke="black" points="293.9,-187 290.9,-191 269.9,-191 266.9,-187 174.1,-187 174.1,-151 293.9,-151 293.9,-187"/>
<text text-anchor="middle" x="234" y="-164.8" font-family="Times,serif" font-size="14.00">OrderPageModule</text>
</g>
<!-- OrderPage&#45;&gt;OrderPageModule -->
<g id="edge1" class="edge">
<title>OrderPage&#45;&gt;OrderPageModule</title>
<path fill="none" stroke="black" d="M378,-122.11C378,-141.34 378,-169 378,-169 378,-169 303.82,-169 303.82,-169"/>
<polygon fill="black" stroke="black" points="303.82,-165.5 293.82,-169 303.82,-172.5 303.82,-165.5"/>
</g>
<!-- OrderPageRoutingModule -->
<g id="node3" class="node">
<title>OrderPageRoutingModule</title>
<polygon fill="#8dd3c7" stroke="black" points="316.02,-122 313.02,-126 292.02,-126 289.02,-122 151.98,-122 151.98,-86 316.02,-86 316.02,-122"/>
<text text-anchor="middle" x="234" y="-99.8" font-family="Times,serif" font-size="14.00">OrderPageRoutingModule</text>
</g>
<!-- OrderPageRoutingModule&#45;&gt;OrderPageModule -->
<g id="edge2" class="edge">
<title>OrderPageRoutingModule&#45;&gt;OrderPageModule</title>
<path fill="none" stroke="black" d="M234,-122.11C234,-122.11 234,-140.99 234,-140.99"/>
<polygon fill="black" stroke="black" points="230.5,-140.99 234,-150.99 237.5,-140.99 230.5,-140.99"/>
</g>
<!-- Router -->
<g id="node4" class="node">
<title>Router</title>
<polygon fill="#8dd3c7" stroke="black" points="134.1,-122 131.1,-126 110.1,-126 107.1,-122 79.9,-122 79.9,-86 134.1,-86 134.1,-122"/>
<text text-anchor="middle" x="107" y="-99.8" font-family="Times,serif" font-size="14.00">Router</text>
</g>
<!-- Router&#45;&gt;OrderPageModule -->
<g id="edge3" class="edge">
<title>Router&#45;&gt;OrderPageModule</title>
<path fill="none" stroke="black" d="M107,-122.11C107,-141.34 107,-169 107,-169 107,-169 164.22,-169 164.22,-169"/>
<polygon fill="black" stroke="black" points="164.22,-172.5 174.22,-169 164.22,-165.5 164.22,-172.5"/>
</g>
</g>
</svg>
