<?xml version="1.0" encoding="UTF-8" standalone="no"?>
<!DOCTYPE svg PUBLIC "-//W3C//DTD SVG 1.1//EN"
 "http://www.w3.org/Graphics/SVG/1.1/DTD/svg11.dtd">
<!-- Generated by graphviz version 2.47.0 (20210316.0004)
 -->
<!-- Title: dependencies Pages: 1 -->
<svg width="4806pt" height="284pt"
 viewBox="0.00 0.00 4806.00 284.00" xmlns="http://www.w3.org/2000/svg" xmlns:xlink="http://www.w3.org/1999/xlink">
<g id="graph0" class="graph" transform="scale(1 1) rotate(0) translate(4 280)">
<title>dependencies</title>
<polygon fill="white" stroke="transparent" points="-4,4 -4,-280 4802,-280 4802,4 -4,4"/>
<text text-anchor="start" x="2378.01" y="-42.4" font-family="sans-serif" font-weight="bold" font-size="14.00">Legend</text>
<polygon fill="#ffffb3" stroke="transparent" points="2165,-10 2165,-30 2185,-30 2185,-10 2165,-10"/>
<text text-anchor="start" x="2188.63" y="-15.4" font-family="sans-serif" font-size="14.00"> &#160;Declarations</text>
<polygon fill="#8dd3c7" stroke="transparent" points="2278,-10 2278,-30 2298,-30 2298,-10 2278,-10"/>
<text text-anchor="start" x="2301.73" y="-15.4" font-family="sans-serif" font-size="14.00"> &#160;Module</text>
<polygon fill="#80b1d3" stroke="transparent" points="2364,-10 2364,-30 2384,-30 2384,-10 2364,-10"/>
<text text-anchor="start" x="2387.78" y="-15.4" font-family="sans-serif" font-size="14.00"> &#160;Bootstrap</text>
<polygon fill="#fdb462" stroke="transparent" points="2461,-10 2461,-30 2481,-30 2481,-10 2461,-10"/>
<text text-anchor="start" x="2484.67" y="-15.4" font-family="sans-serif" font-size="14.00"> &#160;Providers</text>
<polygon fill="#fb8072" stroke="transparent" points="2557,-10 2557,-30 2577,-30 2577,-10 2557,-10"/>
<text text-anchor="start" x="2580.73" y="-15.4" font-family="sans-serif" font-size="14.00"> &#160;Exports</text>
<g id="clust1" class="cluster">
<title>cluster_AccountPageModule</title>
<polygon fill="none" stroke="black" stroke-dasharray="1,5" points="8,-70 8,-195 334,-195 334,-70 8,-70"/>
</g>
<g id="clust2" class="cluster">
<title>cluster_AccountPageModule_declarations</title>
<polygon fill="none" stroke="black" points="220,-78 220,-130 326,-130 326,-78 220,-78"/>
</g>
<g id="clust4" class="cluster">
<title>cluster_AccountPageModule_imports</title>
<polygon fill="none" stroke="black" points="16,-78 16,-130 212,-130 212,-78 16,-78"/>
</g>
<g id="clust14" class="cluster">
<title>cluster_AppModule</title>
<polygon fill="none" stroke="black" stroke-dasharray="1,5" points="342,-70 342,-268 924,-268 924,-70 342,-70"/>
</g>
<g id="clust15" class="cluster">
<title>cluster_AppModule_declarations</title>
<polygon fill="none" stroke="black" points="794,-78 794,-130 916,-130 916,-78 794,-78"/>
</g>
<g id="clust17" class="cluster">
<title>cluster_AppModule_imports</title>
<polygon fill="none" stroke="black" points="642,-78 642,-130 786,-130 786,-78 642,-78"/>
</g>
<g id="clust19" class="cluster">
<title>cluster_AppModule_bootstrap</title>
<polygon fill="none" stroke="black" points="578,-208 578,-260 702,-260 702,-208 578,-208"/>
</g>
<g id="clust20" class="cluster">
<title>cluster_AppModule_providers</title>
<polygon fill="none" stroke="black" points="350,-78 350,-130 634,-130 634,-78 350,-78"/>
</g>
<g id="clust27" class="cluster">
<title>cluster_ArticleDetailPageModule</title>
<polygon fill="none" stroke="black" stroke-dasharray="1,5" points="932,-70 932,-195 1308,-195 1308,-70 932,-70"/>
</g>
<g id="clust28" class="cluster">
<title>cluster_ArticleDetailPageModule_declarations</title>
<polygon fill="none" stroke="black" points="1168,-78 1168,-130 1300,-130 1300,-78 1168,-78"/>
</g>
<g id="clust30" class="cluster">
<title>cluster_ArticleDetailPageModule_imports</title>
<polygon fill="none" stroke="black" points="940,-78 940,-130 1160,-130 1160,-78 940,-78"/>
</g>
<g id="clust40" class="cluster">
<title>cluster_BasketPageModule</title>
<polygon fill="none" stroke="black" stroke-dasharray="1,5" points="1316,-70 1316,-195 1624,-195 1624,-70 1316,-70"/>
</g>
<g id="clust41" class="cluster">
<title>cluster_BasketPageModule_declarations</title>
<polygon fill="none" stroke="black" points="1518,-78 1518,-130 1616,-130 1616,-78 1518,-78"/>
</g>
<g id="clust43" class="cluster">
<title>cluster_BasketPageModule_imports</title>
<polygon fill="none" stroke="black" points="1324,-78 1324,-130 1510,-130 1510,-78 1324,-78"/>
</g>
<g id="clust53" class="cluster">
<title>cluster_ForgetPasswordPageModule</title>
<polygon fill="none" stroke="black" stroke-dasharray="1,5" points="1632,-70 1632,-195 2044,-195 2044,-70 1632,-70"/>
</g>
<g id="clust54" class="cluster">
<title>cluster_ForgetPasswordPageModule_declarations</title>
<polygon fill="none" stroke="black" points="1886,-78 1886,-130 2036,-130 2036,-78 1886,-78"/>
</g>
<g id="clust56" class="cluster">
<title>cluster_ForgetPasswordPageModule_imports</title>
<polygon fill="none" stroke="black" points="1640,-78 1640,-130 1878,-130 1878,-78 1640,-78"/>
</g>
<g id="clust66" class="cluster">
<title>cluster_FormPageModule</title>
<polygon fill="none" stroke="black" stroke-dasharray="1,5" points="2052,-70 2052,-195 2344,-195 2344,-70 2052,-70"/>
</g>
<g id="clust67" class="cluster">
<title>cluster_FormPageModule_declarations</title>
<polygon fill="none" stroke="black" points="2246,-78 2246,-130 2336,-130 2336,-78 2246,-78"/>
</g>
<g id="clust69" class="cluster">
<title>cluster_FormPageModule_imports</title>
<polygon fill="none" stroke="black" points="2060,-78 2060,-130 2238,-130 2238,-78 2060,-78"/>
</g>
<g id="clust79" class="cluster">
<title>cluster_HomePageModule</title>
<polygon fill="none" stroke="black" stroke-dasharray="1,5" points="2352,-70 2352,-195 2652,-195 2652,-70 2352,-70"/>
</g>
<g id="clust80" class="cluster">
<title>cluster_HomePageModule_declarations</title>
<polygon fill="none" stroke="black" points="2550,-78 2550,-130 2644,-130 2644,-78 2550,-78"/>
</g>
<g id="clust82" class="cluster">
<title>cluster_HomePageModule_imports</title>
<polygon fill="none" stroke="black" points="2360,-78 2360,-130 2542,-130 2542,-78 2360,-78"/>
</g>
<g id="clust92" class="cluster">
<title>cluster_LoginPageModule</title>
<polygon fill="none" stroke="black" stroke-dasharray="1,5" points="2660,-70 2660,-195 2958,-195 2958,-70 2660,-70"/>
</g>
<g id="clust93" class="cluster">
<title>cluster_LoginPageModule_declarations</title>
<polygon fill="none" stroke="black" points="2858,-78 2858,-130 2950,-130 2950,-78 2858,-78"/>
</g>
<g id="clust95" class="cluster">
<title>cluster_LoginPageModule_imports</title>
<polygon fill="none" stroke="black" points="2668,-78 2668,-130 2850,-130 2850,-78 2668,-78"/>
</g>
<g id="clust105" class="cluster">
<title>cluster_OrderPageModule</title>
<polygon fill="none" stroke="black" stroke-dasharray="1,5" points="2966,-70 2966,-195 3334,-195 3334,-70 2966,-70"/>
</g>
<g id="clust106" class="cluster">
<title>cluster_OrderPageModule_declarations</title>
<polygon fill="none" stroke="black" points="3234,-78 3234,-130 3326,-130 3326,-78 3234,-78"/>
</g>
<g id="clust108" class="cluster">
<title>cluster_OrderPageModule_imports</title>
<polygon fill="none" stroke="black" points="2974,-78 2974,-130 3226,-130 3226,-78 2974,-78"/>
</g>
<g id="clust118" class="cluster">
<title>cluster_PickerModalPageModule</title>
<polygon fill="none" stroke="black" stroke-dasharray="1,5" points="3342,-70 3342,-195 3718,-195 3718,-70 3342,-70"/>
</g>
<g id="clust119" class="cluster">
<title>cluster_PickerModalPageModule_declarations</title>
<polygon fill="none" stroke="black" points="3578,-78 3578,-130 3710,-130 3710,-78 3578,-78"/>
</g>
<g id="clust121" class="cluster">
<title>cluster_PickerModalPageModule_imports</title>
<polygon fill="none" stroke="black" points="3350,-78 3350,-130 3570,-130 3570,-78 3350,-78"/>
</g>
<g id="clust131" class="cluster">
<title>cluster_ProductsListPageModule</title>
<polygon fill="none" stroke="black" stroke-dasharray="1,5" points="3726,-70 3726,-195 4098,-195 4098,-70 3726,-70"/>
</g>
<g id="clust132" class="cluster">
<title>cluster_ProductsListPageModule_declarations</title>
<polygon fill="none" stroke="black" points="3960,-78 3960,-130 4090,-130 4090,-78 3960,-78"/>
</g>
<g id="clust134" class="cluster">
<title>cluster_ProductsListPageModule_imports</title>
<polygon fill="none" stroke="black" points="3734,-78 3734,-130 3952,-130 3952,-78 3734,-78"/>
</g>
<g id="clust144" class="cluster">
<title>cluster_RegisterPageModule</title>
<polygon fill="none" stroke="black" stroke-dasharray="1,5" points="4106,-70 4106,-195 4430,-195 4430,-70 4106,-70"/>
</g>
<g id="clust145" class="cluster">
<title>cluster_RegisterPageModule_declarations</title>
<polygon fill="none" stroke="black" points="4316,-78 4316,-130 4422,-130 4422,-78 4316,-78"/>
</g>
<g id="clust147" class="cluster">
<title>cluster_RegisterPageModule_imports</title>
<polygon fill="none" stroke="black" points="4114,-78 4114,-130 4308,-130 4308,-78 4114,-78"/>
</g>
<g id="clust157" class="cluster">
<title>cluster_WhoarewePageModule</title>
<polygon fill="none" stroke="black" stroke-dasharray="1,5" points="4438,-70 4438,-195 4790,-195 4790,-70 4438,-70"/>
</g>
<g id="clust158" class="cluster">
<title>cluster_WhoarewePageModule_declarations</title>
<polygon fill="none" stroke="black" points="4662,-78 4662,-130 4782,-130 4782,-78 4662,-78"/>
</g>
<g id="clust160" class="cluster">
<title>cluster_WhoarewePageModule_imports</title>
<polygon fill="none" stroke="black" points="4446,-78 4446,-130 4654,-130 4654,-78 4446,-78"/>
</g>
<!-- AccountPage -->
<g id="node1" class="node">
<title>AccountPage</title>
<polygon fill="#ffffb3" stroke="black" points="318.14,-122 227.86,-122 227.86,-86 318.14,-86 318.14,-122"/>
<text text-anchor="middle" x="273" y="-99.8" font-family="Times,serif" font-size="14.00">AccountPage</text>
</g>
<!-- AccountPageModule -->
<g id="node2" class="node">
<title>AccountPageModule</title>
<polygon fill="#8dd3c7" stroke="black" points="253.19,-187 250.19,-191 229.19,-191 226.19,-187 118.81,-187 118.81,-151 253.19,-151 253.19,-187"/>
<text text-anchor="middle" x="186" y="-164.8" font-family="Times,serif" font-size="14.00">AccountPageModule</text>
</g>
<!-- AccountPage&#45;&gt;AccountPageModule -->
<g id="edge1" class="edge">
<title>AccountPage&#45;&gt;AccountPageModule</title>
<path fill="none" stroke="black" d="M240.39,-122.11C240.39,-122.11 240.39,-140.99 240.39,-140.99"/>
<polygon fill="black" stroke="black" points="236.89,-140.99 240.39,-150.99 243.89,-140.99 236.89,-140.99"/>
</g>
<!-- AccountPageRoutingModule -->
<g id="node3" class="node">
<title>AccountPageRoutingModule</title>
<polygon fill="#8dd3c7" stroke="black" points="203.81,-122 200.81,-126 179.81,-126 176.81,-122 24.19,-122 24.19,-86 203.81,-86 203.81,-122"/>
<text text-anchor="middle" x="114" y="-99.8" font-family="Times,serif" font-size="14.00">AccountPageRoutingModule</text>
</g>
<!-- AccountPageRoutingModule&#45;&gt;AccountPageModule -->
<g id="edge2" class="edge">
<title>AccountPageRoutingModule&#45;&gt;AccountPageModule</title>
<path fill="none" stroke="black" d="M161.28,-122.11C161.28,-122.11 161.28,-140.99 161.28,-140.99"/>
<polygon fill="black" stroke="black" points="157.78,-140.99 161.28,-150.99 164.78,-140.99 157.78,-140.99"/>
</g>
<!-- AppComponent -->
<g id="node4" class="node">
<title>AppComponent</title>
<polygon fill="#ffffb3" stroke="black" points="907.94,-122 802.06,-122 802.06,-86 907.94,-86 907.94,-122"/>
<text text-anchor="middle" x="855" y="-99.8" font-family="Times,serif" font-size="14.00">AppComponent</text>
</g>
<!-- AppModule -->
<g id="node5" class="node">
<title>AppModule</title>
<polygon fill="#8dd3c7" stroke="black" points="681.66,-187 678.66,-191 657.66,-191 654.66,-187 598.34,-187 598.34,-151 681.66,-151 681.66,-187"/>
<text text-anchor="middle" x="640" y="-164.8" font-family="Times,serif" font-size="14.00">AppModule</text>
</g>
<!-- AppComponent&#45;&gt;AppModule -->
<g id="edge3" class="edge">
<title>AppComponent&#45;&gt;AppModule</title>
<path fill="none" stroke="black" d="M855,-122.11C855,-141.34 855,-169 855,-169 855,-169 691.71,-169 691.71,-169"/>
<polygon fill="black" stroke="black" points="691.71,-165.5 681.71,-169 691.71,-172.5 691.71,-165.5"/>
</g>
<!-- AppComponent  -->
<g id="node7" class="node">
<title>AppComponent </title>
<polygon fill="#80b1d3" stroke="black" points="694.44,-252 585.56,-252 585.56,-216 694.44,-216 694.44,-252"/>
<text text-anchor="middle" x="640" y="-229.8" font-family="Times,serif" font-size="14.00">AppComponent </text>
</g>
<!-- AppModule&#45;&gt;AppComponent  -->
<g id="edge5" class="edge">
<title>AppModule&#45;&gt;AppComponent </title>
<path fill="none" stroke="black" stroke-dasharray="1,5" d="M640,-187.11C640,-187.11 640,-205.99 640,-205.99"/>
<polygon fill="black" stroke="black" points="636.5,-205.99 640,-215.99 643.5,-205.99 636.5,-205.99"/>
</g>
<!-- AppRoutingModule -->
<g id="node6" class="node">
<title>AppRoutingModule</title>
<polygon fill="#8dd3c7" stroke="black" points="778.27,-122 775.27,-126 754.27,-126 751.27,-122 649.73,-122 649.73,-86 778.27,-86 778.27,-122"/>
<text text-anchor="middle" x="714" y="-99.8" font-family="Times,serif" font-size="14.00">AppRoutingModule</text>
</g>
<!-- AppRoutingModule&#45;&gt;AppModule -->
<g id="edge4" class="edge">
<title>AppRoutingModule&#45;&gt;AppModule</title>
<path fill="none" stroke="black" d="M665.72,-122.11C665.72,-122.11 665.72,-140.99 665.72,-140.99"/>
<polygon fill="black" stroke="black" points="662.22,-140.99 665.72,-150.99 669.22,-140.99 662.22,-140.99"/>
</g>
<!-- AlertService -->
<g id="node8" class="node">
<title>AlertService</title>
<ellipse fill="#fdb462" stroke="black" cx="566" cy="-104" rx="59.66" ry="18"/>
<text text-anchor="middle" x="566" y="-99.8" font-family="Times,serif" font-size="14.00">AlertService</text>
</g>
<!-- AlertService&#45;&gt;AppModule -->
<g id="edge6" class="edge">
<title>AlertService&#45;&gt;AppModule</title>
<path fill="none" stroke="black" d="M612,-115.62C612,-115.62 612,-140.85 612,-140.85"/>
<polygon fill="black" stroke="black" points="608.5,-140.85 612,-150.85 615.5,-140.85 608.5,-140.85"/>
</g>
<!-- UtilityService -->
<g id="node9" class="node">
<title>UtilityService</title>
<ellipse fill="#fdb462" stroke="black" cx="423" cy="-104" rx="65.42" ry="18"/>
<text text-anchor="middle" x="423" y="-99.8" font-family="Times,serif" font-size="14.00">UtilityService</text>
</g>
<!-- UtilityService&#45;&gt;AppModule -->
<g id="edge7" class="edge">
<title>UtilityService&#45;&gt;AppModule</title>
<path fill="none" stroke="black" d="M423,-122.11C423,-141.34 423,-169 423,-169 423,-169 588.16,-169 588.16,-169"/>
<polygon fill="black" stroke="black" points="588.16,-172.5 598.16,-169 588.16,-165.5 588.16,-172.5"/>
</g>
<!-- ArticleDetailPage -->
<g id="node10" class="node">
<title>ArticleDetailPage</title>
<polygon fill="#ffffb3" stroke="black" points="1292.29,-122 1175.71,-122 1175.71,-86 1292.29,-86 1292.29,-122"/>
<text text-anchor="middle" x="1234" y="-99.8" font-family="Times,serif" font-size="14.00">ArticleDetailPage</text>
</g>
<!-- ArticleDetailPageModule -->
<g id="node11" class="node">
<title>ArticleDetailPageModule</title>
<polygon fill="#8dd3c7" stroke="black" points="1214.84,-187 1211.84,-191 1190.84,-191 1187.84,-187 1055.16,-187 1055.16,-151 1214.84,-151 1214.84,-187"/>
<text text-anchor="middle" x="1135" y="-164.8" font-family="Times,serif" font-size="14.00">ArticleDetailPageModule</text>
</g>
<!-- ArticleDetailPage&#45;&gt;ArticleDetailPageModule -->
<g id="edge8" class="edge">
<title>ArticleDetailPage&#45;&gt;ArticleDetailPageModule</title>
<path fill="none" stroke="black" d="M1195.39,-122.11C1195.39,-122.11 1195.39,-140.99 1195.39,-140.99"/>
<polygon fill="black" stroke="black" points="1191.89,-140.99 1195.39,-150.99 1198.89,-140.99 1191.89,-140.99"/>
</g>
<!-- ArticleDetailPageRoutingModule -->
<g id="node12" class="node">
<title>ArticleDetailPageRoutingModule</title>
<polygon fill="#8dd3c7" stroke="black" points="1152.46,-122 1149.46,-126 1128.46,-126 1125.46,-122 947.54,-122 947.54,-86 1152.46,-86 1152.46,-122"/>
<text text-anchor="middle" x="1050" y="-99.8" font-family="Times,serif" font-size="14.00">ArticleDetailPageRoutingModule</text>
</g>
<!-- ArticleDetailPageRoutingModule&#45;&gt;ArticleDetailPageModule -->
<g id="edge9" class="edge">
<title>ArticleDetailPageRoutingModule&#45;&gt;ArticleDetailPageModule</title>
<path fill="none" stroke="black" d="M1103.78,-122.11C1103.78,-122.11 1103.78,-140.99 1103.78,-140.99"/>
<polygon fill="black" stroke="black" points="1100.28,-140.99 1103.78,-150.99 1107.28,-140.99 1100.28,-140.99"/>
</g>
<!-- BasketPage -->
<g id="node13" class="node">
<title>BasketPage</title>
<polygon fill="#ffffb3" stroke="black" points="1607.81,-122 1526.19,-122 1526.19,-86 1607.81,-86 1607.81,-122"/>
<text text-anchor="middle" x="1567" y="-99.8" font-family="Times,serif" font-size="14.00">BasketPage</text>
</g>
<!-- BasketPageModule -->
<g id="node14" class="node">
<title>BasketPageModule</title>
<polygon fill="#8dd3c7" stroke="black" points="1547.36,-187 1544.36,-191 1523.36,-191 1520.36,-187 1422.64,-187 1422.64,-151 1547.36,-151 1547.36,-187"/>
<text text-anchor="middle" x="1485" y="-164.8" font-family="Times,serif" font-size="14.00">BasketPageModule</text>
</g>
<!-- BasketPage&#45;&gt;BasketPageModule -->
<g id="edge10" class="edge">
<title>BasketPage&#45;&gt;BasketPageModule</title>
<path fill="none" stroke="black" d="M1536.89,-122.11C1536.89,-122.11 1536.89,-140.99 1536.89,-140.99"/>
<polygon fill="black" stroke="black" points="1533.39,-140.99 1536.89,-150.99 1540.39,-140.99 1533.39,-140.99"/>
</g>
<!-- BasketPageRoutingModule -->
<g id="node15" class="node">
<title>BasketPageRoutingModule</title>
<polygon fill="#8dd3c7" stroke="black" points="1501.98,-122 1498.98,-126 1477.98,-126 1474.98,-122 1332.02,-122 1332.02,-86 1501.98,-86 1501.98,-122"/>
<text text-anchor="middle" x="1417" y="-99.8" font-family="Times,serif" font-size="14.00">BasketPageRoutingModule</text>
</g>
<!-- BasketPageRoutingModule&#45;&gt;BasketPageModule -->
<g id="edge11" class="edge">
<title>BasketPageRoutingModule&#45;&gt;BasketPageModule</title>
<path fill="none" stroke="black" d="M1462.28,-122.11C1462.28,-122.11 1462.28,-140.99 1462.28,-140.99"/>
<polygon fill="black" stroke="black" points="1458.78,-140.99 1462.28,-150.99 1465.78,-140.99 1458.78,-140.99"/>
</g>
<!-- ForgetPasswordPage -->
<g id="node16" class="node">
<title>ForgetPasswordPage</title>
<polygon fill="#ffffb3" stroke="black" points="2027.91,-122 1894.09,-122 1894.09,-86 2027.91,-86 2027.91,-122"/>
<text text-anchor="middle" x="1961" y="-99.8" font-family="Times,serif" font-size="14.00">ForgetPasswordPage</text>
</g>
<!-- ForgetPasswordPageModule -->
<g id="node17" class="node">
<title>ForgetPasswordPageModule</title>
<polygon fill="#8dd3c7" stroke="black" points="1941.46,-187 1938.46,-191 1917.46,-191 1914.46,-187 1764.54,-187 1764.54,-151 1941.46,-151 1941.46,-187"/>
<text text-anchor="middle" x="1853" y="-164.8" font-family="Times,serif" font-size="14.00">ForgetPasswordPageModule</text>
</g>
<!-- ForgetPasswordPage&#45;&gt;ForgetPasswordPageModule -->
<g id="edge12" class="edge">
<title>ForgetPasswordPage&#45;&gt;ForgetPasswordPageModule</title>
<path fill="none" stroke="black" d="M1917.89,-122.11C1917.89,-122.11 1917.89,-140.99 1917.89,-140.99"/>
<polygon fill="black" stroke="black" points="1914.39,-140.99 1917.89,-150.99 1921.39,-140.99 1914.39,-140.99"/>
</g>
<!-- ForgetPasswordPageRoutingModule -->
<g id="node18" class="node">
<title>ForgetPasswordPageRoutingModule</title>
<polygon fill="#8dd3c7" stroke="black" points="1870.08,-122 1867.08,-126 1846.08,-126 1843.08,-122 1647.92,-122 1647.92,-86 1870.08,-86 1870.08,-122"/>
<text text-anchor="middle" x="1759" y="-99.8" font-family="Times,serif" font-size="14.00">ForgetPasswordPageRoutingModule</text>
</g>
<!-- ForgetPasswordPageRoutingModule&#45;&gt;ForgetPasswordPageModule -->
<g id="edge13" class="edge">
<title>ForgetPasswordPageRoutingModule&#45;&gt;ForgetPasswordPageModule</title>
<path fill="none" stroke="black" d="M1817.28,-122.11C1817.28,-122.11 1817.28,-140.99 1817.28,-140.99"/>
<polygon fill="black" stroke="black" points="1813.78,-140.99 1817.28,-150.99 1820.78,-140.99 1813.78,-140.99"/>
</g>
<!-- FormPage -->
<g id="node19" class="node">
<title>FormPage</title>
<polygon fill="#ffffb3" stroke="black" points="2327.55,-122 2254.45,-122 2254.45,-86 2327.55,-86 2327.55,-122"/>
<text text-anchor="middle" x="2291" y="-99.8" font-family="Times,serif" font-size="14.00">FormPage</text>
</g>
<!-- FormPageModule -->
<g id="node20" class="node">
<title>FormPageModule</title>
<polygon fill="#8dd3c7" stroke="black" points="2271.6,-187 2268.6,-191 2247.6,-191 2244.6,-187 2154.4,-187 2154.4,-151 2271.6,-151 2271.6,-187"/>
<text text-anchor="middle" x="2213" y="-164.8" font-family="Times,serif" font-size="14.00">FormPageModule</text>
</g>
<!-- FormPage&#45;&gt;FormPageModule -->
<g id="edge14" class="edge">
<title>FormPage&#45;&gt;FormPageModule</title>
<path fill="none" stroke="black" d="M2262.89,-122.11C2262.89,-122.11 2262.89,-140.99 2262.89,-140.99"/>
<polygon fill="black" stroke="black" points="2259.39,-140.99 2262.89,-150.99 2266.39,-140.99 2259.39,-140.99"/>
</g>
<!-- FormPageRoutingModule -->
<g id="node21" class="node">
<title>FormPageRoutingModule</title>
<polygon fill="#8dd3c7" stroke="black" points="2230.21,-122 2227.21,-126 2206.21,-126 2203.21,-122 2067.79,-122 2067.79,-86 2230.21,-86 2230.21,-122"/>
<text text-anchor="middle" x="2149" y="-99.8" font-family="Times,serif" font-size="14.00">FormPageRoutingModule</text>
</g>
<!-- FormPageRoutingModule&#45;&gt;FormPageModule -->
<g id="edge15" class="edge">
<title>FormPageRoutingModule&#45;&gt;FormPageModule</title>
<path fill="none" stroke="black" d="M2192.28,-122.11C2192.28,-122.11 2192.28,-140.99 2192.28,-140.99"/>
<polygon fill="black" stroke="black" points="2188.78,-140.99 2192.28,-150.99 2195.78,-140.99 2188.78,-140.99"/>
</g>
<!-- HomePage -->
<g id="node22" class="node">
<title>HomePage</title>
<polygon fill="#ffffb3" stroke="black" points="2635.92,-122 2558.08,-122 2558.08,-86 2635.92,-86 2635.92,-122"/>
<text text-anchor="middle" x="2597" y="-99.8" font-family="Times,serif" font-size="14.00">HomePage</text>
</g>
<!-- HomePageModule -->
<g id="node23" class="node">
<title>HomePageModule</title>
<polygon fill="#8dd3c7" stroke="black" points="2577.47,-187 2574.47,-191 2553.47,-191 2550.47,-187 2456.53,-187 2456.53,-151 2577.47,-151 2577.47,-187"/>
<text text-anchor="middle" x="2517" y="-164.8" font-family="Times,serif" font-size="14.00">HomePageModule</text>
</g>
<!-- HomePage&#45;&gt;HomePageModule -->
<g id="edge16" class="edge">
<title>HomePage&#45;&gt;HomePageModule</title>
<path fill="none" stroke="black" d="M2567.89,-122.11C2567.89,-122.11 2567.89,-140.99 2567.89,-140.99"/>
<polygon fill="black" stroke="black" points="2564.39,-140.99 2567.89,-150.99 2571.39,-140.99 2564.39,-140.99"/>
</g>
<!-- HomePageRoutingModule -->
<g id="node24" class="node">
<title>HomePageRoutingModule</title>
<polygon fill="#8dd3c7" stroke="black" points="2534.09,-122 2531.09,-126 2510.09,-126 2507.09,-122 2367.91,-122 2367.91,-86 2534.09,-86 2534.09,-122"/>
<text text-anchor="middle" x="2451" y="-99.8" font-family="Times,serif" font-size="14.00">HomePageRoutingModule</text>
</g>
<!-- HomePageRoutingModule&#45;&gt;HomePageModule -->
<g id="edge17" class="edge">
<title>HomePageRoutingModule&#45;&gt;HomePageModule</title>
<path fill="none" stroke="black" d="M2495.28,-122.11C2495.28,-122.11 2495.28,-140.99 2495.28,-140.99"/>
<polygon fill="black" stroke="black" points="2491.78,-140.99 2495.28,-150.99 2498.78,-140.99 2491.78,-140.99"/>
</g>
<!-- LoginPage -->
<g id="node25" class="node">
<title>LoginPage</title>
<polygon fill="#ffffb3" stroke="black" points="2942.16,-122 2865.84,-122 2865.84,-86 2942.16,-86 2942.16,-122"/>
<text text-anchor="middle" x="2904" y="-99.8" font-family="Times,serif" font-size="14.00">LoginPage</text>
</g>
<!-- LoginPageModule -->
<g id="node26" class="node">
<title>LoginPageModule</title>
<polygon fill="#8dd3c7" stroke="black" points="2884.2,-187 2881.2,-191 2860.2,-191 2857.2,-187 2763.8,-187 2763.8,-151 2884.2,-151 2884.2,-187"/>
<text text-anchor="middle" x="2824" y="-164.8" font-family="Times,serif" font-size="14.00">LoginPageModule</text>
</g>
<!-- LoginPage&#45;&gt;LoginPageModule -->
<g id="edge18" class="edge">
<title>LoginPage&#45;&gt;LoginPageModule</title>
<path fill="none" stroke="black" d="M2874.89,-122.11C2874.89,-122.11 2874.89,-140.99 2874.89,-140.99"/>
<polygon fill="black" stroke="black" points="2871.39,-140.99 2874.89,-150.99 2878.39,-140.99 2871.39,-140.99"/>
</g>
<!-- LoginPageRoutingModule -->
<g id="node27" class="node">
<title>LoginPageRoutingModule</title>
<polygon fill="#8dd3c7" stroke="black" points="2841.82,-122 2838.82,-126 2817.82,-126 2814.82,-122 2676.18,-122 2676.18,-86 2841.82,-86 2841.82,-122"/>
<text text-anchor="middle" x="2759" y="-99.8" font-family="Times,serif" font-size="14.00">LoginPageRoutingModule</text>
</g>
<!-- LoginPageRoutingModule&#45;&gt;LoginPageModule -->
<g id="edge19" class="edge">
<title>LoginPageRoutingModule&#45;&gt;LoginPageModule</title>
<path fill="none" stroke="black" d="M2802.78,-122.11C2802.78,-122.11 2802.78,-140.99 2802.78,-140.99"/>
<polygon fill="black" stroke="black" points="2799.28,-140.99 2802.78,-150.99 2806.28,-140.99 2799.28,-140.99"/>
</g>
<!-- OrderPage -->
<g id="node28" class="node">
<title>OrderPage</title>
<polygon fill="#ffffb3" stroke="black" points="3317.85,-122 3242.15,-122 3242.15,-86 3317.85,-86 3317.85,-122"/>
<text text-anchor="middle" x="3280" y="-99.8" font-family="Times,serif" font-size="14.00">OrderPage</text>
</g>
<!-- OrderPageModule -->
<g id="node29" class="node">
<title>OrderPageModule</title>
<polygon fill="#8dd3c7" stroke="black" points="3195.9,-187 3192.9,-191 3171.9,-191 3168.9,-187 3076.1,-187 3076.1,-151 3195.9,-151 3195.9,-187"/>
<text text-anchor="middle" x="3136" y="-164.8" font-family="Times,serif" font-size="14.00">OrderPageModule</text>
</g>
<!-- OrderPage&#45;&gt;OrderPageModule -->
<g id="edge20" class="edge">
<title>OrderPage&#45;&gt;OrderPageModule</title>
<path fill="none" stroke="black" d="M3280,-122.11C3280,-141.34 3280,-169 3280,-169 3280,-169 3205.82,-169 3205.82,-169"/>
<polygon fill="black" stroke="black" points="3205.82,-165.5 3195.82,-169 3205.82,-172.5 3205.82,-165.5"/>
</g>
<!-- OrderPageRoutingModule -->
<g id="node30" class="node">
<title>OrderPageRoutingModule</title>
<polygon fill="#8dd3c7" stroke="black" points="3218.02,-122 3215.02,-126 3194.02,-126 3191.02,-122 3053.98,-122 3053.98,-86 3218.02,-86 3218.02,-122"/>
<text text-anchor="middle" x="3136" y="-99.8" font-family="Times,serif" font-size="14.00">OrderPageRoutingModule</text>
</g>
<!-- OrderPageRoutingModule&#45;&gt;OrderPageModule -->
<g id="edge21" class="edge">
<title>OrderPageRoutingModule&#45;&gt;OrderPageModule</title>
<path fill="none" stroke="black" d="M3136,-122.11C3136,-122.11 3136,-140.99 3136,-140.99"/>
<polygon fill="black" stroke="black" points="3132.5,-140.99 3136,-150.99 3139.5,-140.99 3132.5,-140.99"/>
</g>
<!-- Router -->
<g id="node31" class="node">
<title>Router</title>
<polygon fill="#8dd3c7" stroke="black" points="3036.1,-122 3033.1,-126 3012.1,-126 3009.1,-122 2981.9,-122 2981.9,-86 3036.1,-86 3036.1,-122"/>
<text text-anchor="middle" x="3009" y="-99.8" font-family="Times,serif" font-size="14.00">Router</text>
</g>
<!-- Router&#45;&gt;OrderPageModule -->
<g id="edge22" class="edge">
<title>Router&#45;&gt;OrderPageModule</title>
<path fill="none" stroke="black" d="M3009,-122.11C3009,-141.34 3009,-169 3009,-169 3009,-169 3066.22,-169 3066.22,-169"/>
<polygon fill="black" stroke="black" points="3066.22,-172.5 3076.22,-169 3066.22,-165.5 3066.22,-172.5"/>
</g>
<!-- PickerModalPage -->
<g id="node32" class="node">
<title>PickerModalPage</title>
<polygon fill="#ffffb3" stroke="black" points="3701.53,-122 3586.47,-122 3586.47,-86 3701.53,-86 3701.53,-122"/>
<text text-anchor="middle" x="3644" y="-99.8" font-family="Times,serif" font-size="14.00">PickerModalPage</text>
</g>
<!-- PickerModalPageModule -->
<g id="node33" class="node">
<title>PickerModalPageModule</title>
<polygon fill="#8dd3c7" stroke="black" points="3624.57,-187 3621.57,-191 3600.57,-191 3597.57,-187 3465.43,-187 3465.43,-151 3624.57,-151 3624.57,-187"/>
<text text-anchor="middle" x="3545" y="-164.8" font-family="Times,serif" font-size="14.00">PickerModalPageModule</text>
</g>
<!-- PickerModalPage&#45;&gt;PickerModalPageModule -->
<g id="edge23" class="edge">
<title>PickerModalPage&#45;&gt;PickerModalPageModule</title>
<path fill="none" stroke="black" d="M3605.39,-122.11C3605.39,-122.11 3605.39,-140.99 3605.39,-140.99"/>
<polygon fill="black" stroke="black" points="3601.89,-140.99 3605.39,-150.99 3608.89,-140.99 3601.89,-140.99"/>
</g>
<!-- PickerModalPageRoutingModule -->
<g id="node34" class="node">
<title>PickerModalPageRoutingModule</title>
<polygon fill="#8dd3c7" stroke="black" points="3562.19,-122 3559.19,-126 3538.19,-126 3535.19,-122 3357.81,-122 3357.81,-86 3562.19,-86 3562.19,-122"/>
<text text-anchor="middle" x="3460" y="-99.8" font-family="Times,serif" font-size="14.00">PickerModalPageRoutingModule</text>
</g>
<!-- PickerModalPageRoutingModule&#45;&gt;PickerModalPageModule -->
<g id="edge24" class="edge">
<title>PickerModalPageRoutingModule&#45;&gt;PickerModalPageModule</title>
<path fill="none" stroke="black" d="M3513.78,-122.11C3513.78,-122.11 3513.78,-140.99 3513.78,-140.99"/>
<polygon fill="black" stroke="black" points="3510.28,-140.99 3513.78,-150.99 3517.28,-140.99 3510.28,-140.99"/>
</g>
<!-- ProductsListPage -->
<g id="node35" class="node">
<title>ProductsListPage</title>
<polygon fill="#ffffb3" stroke="black" points="4081.98,-122 3968.02,-122 3968.02,-86 4081.98,-86 4081.98,-122"/>
<text text-anchor="middle" x="4025" y="-99.8" font-family="Times,serif" font-size="14.00">ProductsListPage</text>
</g>
<!-- ProductsListPageModule -->
<g id="node36" class="node">
<title>ProductsListPageModule</title>
<polygon fill="#8dd3c7" stroke="black" points="4005.53,-187 4002.53,-191 3981.53,-191 3978.53,-187 3848.47,-187 3848.47,-151 4005.53,-151 4005.53,-187"/>
<text text-anchor="middle" x="3927" y="-164.8" font-family="Times,serif" font-size="14.00">ProductsListPageModule</text>
</g>
<!-- ProductsListPage&#45;&gt;ProductsListPageModule -->
<g id="edge25" class="edge">
<title>ProductsListPage&#45;&gt;ProductsListPageModule</title>
<path fill="none" stroke="black" d="M3986.89,-122.11C3986.89,-122.11 3986.89,-140.99 3986.89,-140.99"/>
<polygon fill="black" stroke="black" points="3983.39,-140.99 3986.89,-150.99 3990.39,-140.99 3983.39,-140.99"/>
</g>
<!-- ProductsListPageRoutingModule -->
<g id="node37" class="node">
<title>ProductsListPageRoutingModule</title>
<polygon fill="#8dd3c7" stroke="black" points="3944.15,-122 3941.15,-126 3920.15,-126 3917.15,-122 3741.85,-122 3741.85,-86 3944.15,-86 3944.15,-122"/>
<text text-anchor="middle" x="3843" y="-99.8" font-family="Times,serif" font-size="14.00">ProductsListPageRoutingModule</text>
</g>
<!-- ProductsListPageRoutingModule&#45;&gt;ProductsListPageModule -->
<g id="edge26" class="edge">
<title>ProductsListPageRoutingModule&#45;&gt;ProductsListPageModule</title>
<path fill="none" stroke="black" d="M3896.28,-122.11C3896.28,-122.11 3896.28,-140.99 3896.28,-140.99"/>
<polygon fill="black" stroke="black" points="3892.78,-140.99 3896.28,-150.99 3899.78,-140.99 3892.78,-140.99"/>
</g>
<!-- RegisterPage -->
<g id="node38" class="node">
<title>RegisterPage</title>
<polygon fill="#ffffb3" stroke="black" points="4413.86,-122 4324.14,-122 4324.14,-86 4413.86,-86 4413.86,-122"/>
<text text-anchor="middle" x="4369" y="-99.8" font-family="Times,serif" font-size="14.00">RegisterPage</text>
</g>
<!-- RegisterPageModule -->
<g id="node39" class="node">
<title>RegisterPageModule</title>
<polygon fill="#8dd3c7" stroke="black" points="4349.91,-187 4346.91,-191 4325.91,-191 4322.91,-187 4216.09,-187 4216.09,-151 4349.91,-151 4349.91,-187"/>
<text text-anchor="middle" x="4283" y="-164.8" font-family="Times,serif" font-size="14.00">RegisterPageModule</text>
</g>
<!-- RegisterPage&#45;&gt;RegisterPageModule -->
<g id="edge27" class="edge">
<title>RegisterPage&#45;&gt;RegisterPageModule</title>
<path fill="none" stroke="black" d="M4336.89,-122.11C4336.89,-122.11 4336.89,-140.99 4336.89,-140.99"/>
<polygon fill="black" stroke="black" points="4333.39,-140.99 4336.89,-150.99 4340.39,-140.99 4333.39,-140.99"/>
</g>
<!-- RegisterPageRoutingModule -->
<g id="node40" class="node">
<title>RegisterPageRoutingModule</title>
<polygon fill="#8dd3c7" stroke="black" points="4300.03,-122 4297.03,-126 4276.03,-126 4273.03,-122 4121.97,-122 4121.97,-86 4300.03,-86 4300.03,-122"/>
<text text-anchor="middle" x="4211" y="-99.8" font-family="Times,serif" font-size="14.00">RegisterPageRoutingModule</text>
</g>
<!-- RegisterPageRoutingModule&#45;&gt;RegisterPageModule -->
<g id="edge28" class="edge">
<title>RegisterPageRoutingModule&#45;&gt;RegisterPageModule</title>
<path fill="none" stroke="black" d="M4258.28,-122.11C4258.28,-122.11 4258.28,-140.99 4258.28,-140.99"/>
<polygon fill="black" stroke="black" points="4254.78,-140.99 4258.28,-150.99 4261.78,-140.99 4254.78,-140.99"/>
</g>
<!-- WhoarewePage -->
<g id="node41" class="node">
<title>WhoarewePage</title>
<polygon fill="#ffffb3" stroke="black" points="4773.84,-122 4670.16,-122 4670.16,-86 4773.84,-86 4773.84,-122"/>
<text text-anchor="middle" x="4722" y="-99.8" font-family="Times,serif" font-size="14.00">WhoarewePage</text>
</g>
<!-- WhoarewePageModule -->
<g id="node42" class="node">
<title>WhoarewePageModule</title>
<polygon fill="#8dd3c7" stroke="black" points="4702.89,-187 4699.89,-191 4678.89,-191 4675.89,-187 4555.11,-187 4555.11,-151 4702.89,-151 4702.89,-187"/>
<text text-anchor="middle" x="4629" y="-164.8" font-family="Times,serif" font-size="14.00">WhoarewePageModule</text>
</g>
<!-- WhoarewePage&#45;&gt;WhoarewePageModule -->
<g id="edge29" class="edge">
<title>WhoarewePage&#45;&gt;WhoarewePageModule</title>
<path fill="none" stroke="black" d="M4686.39,-122.11C4686.39,-122.11 4686.39,-140.99 4686.39,-140.99"/>
<polygon fill="black" stroke="black" points="4682.89,-140.99 4686.39,-150.99 4689.89,-140.99 4682.89,-140.99"/>
</g>
<!-- WhoarewePageRoutingModule -->
<g id="node43" class="node">
<title>WhoarewePageRoutingModule</title>
<polygon fill="#8dd3c7" stroke="black" points="4646.01,-122 4643.01,-126 4622.01,-126 4619.01,-122 4453.99,-122 4453.99,-86 4646.01,-86 4646.01,-122"/>
<text text-anchor="middle" x="4550" y="-99.8" font-family="Times,serif" font-size="14.00">WhoarewePageRoutingModule</text>
</g>
<!-- WhoarewePageRoutingModule&#45;&gt;WhoarewePageModule -->
<g id="edge30" class="edge">
<title>WhoarewePageRoutingModule&#45;&gt;WhoarewePageModule</title>
<path fill="none" stroke="black" d="M4600.78,-122.11C4600.78,-122.11 4600.78,-140.99 4600.78,-140.99"/>
<polygon fill="black" stroke="black" points="4597.28,-140.99 4600.78,-150.99 4604.28,-140.99 4597.28,-140.99"/>
</g>
</g>
</svg>
